<svg xmlns="http://www.w3.org/2000/svg" viewBox="0 0 32 32">
  <path fill="#0f0f0f" d="M16 2.5c-.8 0-1.6.2-2.3.6L6.2 7.4c-1.4.8-2.3 2.4-2.3 4v8.3c0 1.7.9 3.2 2.3 4l7.5 4.3c1.4.8 3.2.8 4.6 0l7.5-4.3c1.4-.8 2.3-2.4 2.3-4v-8.3c0-1.7-.9-3.2-2.3-4l-7.5-4.3c-.7-.4-1.5-.6-2.3-.6zm0 1.5c.5 0 1 .1 1.5.4l7.5 4.3c.9.5 1.5 1.5 1.5 2.6v8.3c0 1.1-.6 2.1-1.5 2.6l-7.5 4.3c-.9.5-2.1.5-3 0l-7.5-4.3c-.9-.5-1.5-1.5-1.5-2.6v-8.3c0-1.1.6-2.1 1.5-2.6l7.5-4.3c.5-.3 1-.4 1.5-.4z"/>
  <line x1="16" y1="9" x2="16" y2="15" stroke="#0f0f0f" stroke-width="1.2" stroke-linecap="round"/>
  <line x1="11" y1="17" x2="21" y2="17" stroke="#0f0f0f" stroke-width="1.2" stroke-linecap="round"/>
  <line x1="12.5" y1="20" x2="19.5" y2="20" stroke="#0f0f0f" stroke-width="1.2" stroke-linecap="round"/>
  <line x1="10" y1="14" x2="22" y2="14" stroke="#0f0f0f" stroke-width="1.2" stroke-linecap="round"/>
</svg>
