<?xml version="1.0" encoding="UTF-8"?>
<svg id="Calque_2" xmlns="http://www.w3.org/2000/svg" version="1.1" viewBox="0 0 1044.6 1080">
  <!-- Generator: Adobe Illustrator 29.8.2, SVG Export Plug-In . SVG Version: 2.1.1 Build 3)  -->
  <defs>
    <style>
      .st0 {
        fill: none;
        stroke: #000;
        stroke-linecap: round;
        stroke-miterlimit: 10;
        stroke-width: 10px;
      }
    </style>
  </defs>
  <path class="st0" d="M544,269.8l123.5,71.3c13.4,7.7,21.7,22.1,21.7,37.6v142.6c0,15.5-8.3,29.8-21.7,37.6l-123.5,71.3c-13.4,7.7-30,7.7-43.4,0l-123.5-71.3c-13.4-7.7-21.7-22.1-21.7-37.6v-142.6c0-15.5,8.3-29.8,21.7-37.6l123.5-71.3c13.4-7.7,30-7.7,43.4,0Z"/>
  <line class="st0" x1="522.3" y1="344.7" x2="522.3" y2="463.6"/>
  <line class="st0" x1="595.9" y1="493.4" x2="454" y2="493.4"/>
  <line class="st0" x1="575" y1="532.9" x2="474.9" y2="532.9"/>
  <line class="st0" x1="426.8" y1="449.4" x2="617.8" y2="449.4"/>
  <path d="M181.7,803.4v-66h7.1v59.5h30.5v6.5h-37.6Z"/>
  <path d="M244.2,765l4.9-10.7c.6-1.3,1.1-2.7,1.4-4.1.3-1.4.5-2.5.5-3.4,0-1.7-.4-3.5-1.3-5.2-.8-1.7-2-3.1-3.6-4.2h8.1c1.4,1.1,2.5,2.6,3.3,4.2.8,1.7,1.2,3.4,1.2,5.2s-.2,2.7-.7,4.4c-.5,1.7-1,3.4-1.8,5.1l-4,8.7h-8Z"/>
  <g>
    <path d="M283.2,803.4l17.5-66h9.5l17.4,66h-7.2l-4.6-17.9h-20.6l-4.5,17.9h-7.3ZM296.4,779.3h17.6l-5.6-22.1c-.9-3.7-1.6-6.8-2.2-9.2-.5-2.5-.9-4.1-1-4.9-.1.8-.5,2.4-1,4.9-.5,2.5-1.3,5.5-2.2,9.2l-5.7,22.1Z"/>
    <path d="M328.1,803.9h-8.3l-4.6-17.9h-19.8l-4.5,17.9h-8.4l17.7-67h10.3l17.6,67ZM320.6,802.9h6.2l-17.1-65h-8.7l-17.2,65h6.3l4.5-17.9h21.4l4.6,17.9ZM314.7,779.8h-18.9l5.9-22.7c.9-3.7,1.6-6.8,2.2-9.2.5-2.4.9-4.1,1-4.9l.5-3.2.5,3.2c.1.8.4,2.4,1,4.9.5,2.5,1.3,5.6,2.2,9.2l5.8,22.7ZM297.1,778.8h16.3l-5.4-21.4c-.9-3.7-1.6-6.8-2.2-9.2-.2-.9-.4-1.7-.5-2.4-.1.7-.3,1.5-.5,2.4-.5,2.5-1.3,5.6-2.2,9.2l-5.5,21.4Z"/>
  </g>
  <g>
    <path d="M341.3,803.4v-66h19.8c3.9,0,7.3.8,10.3,2.4,2.9,1.6,5.2,3.8,6.8,6.6,1.6,2.8,2.4,6.1,2.4,9.9s-1.2,8.5-3.6,11.6c-2.4,3.2-5.6,5.3-9.6,6.5l14,29.1h-8l-13.4-28.5h-11.6v28.5h-7.1ZM348.3,768.4h12.7c3.7,0,6.6-1.1,8.8-3.3,2.2-2.2,3.3-5.2,3.3-9s-1.1-6.6-3.3-8.9c-2.2-2.2-5.2-3.3-8.8-3.3h-12.7v24.5Z"/>
    <path d="M382.1,803.9h-9.2l-13.4-28.5h-10.8v28.5h-8.1v-67h20.3c4,0,7.5.8,10.5,2.4,3,1.6,5.3,3.9,7,6.7,1.6,2.9,2.5,6.3,2.5,10.1s-1.2,8.7-3.7,11.9c-2.3,3.1-5.5,5.3-9.3,6.5l14.1,29.3ZM373.6,802.9h6.9l-13.9-28.9.6-.2c3.9-1.1,7.1-3.2,9.4-6.3,2.3-3.1,3.5-6.9,3.5-11.3s-.8-6.9-2.3-9.7c-1.5-2.7-3.8-4.8-6.6-6.4-2.8-1.5-6.2-2.3-10-2.3h-19.3v65h6.1v-28.5h12.4l13.4,28.5ZM361.1,768.9h-13.2v-25.5h13.2c3.7,0,6.8,1.2,9.1,3.5,2.3,2.3,3.5,5.4,3.5,9.2s-1.2,7-3.4,9.3c-2.3,2.3-5.4,3.5-9.2,3.5ZM348.8,767.9h12.2c3.5,0,6.4-1.1,8.5-3.2,2.1-2.1,3.2-5,3.2-8.6s-1.1-6.4-3.2-8.5c-2.1-2.1-5-3.2-8.4-3.2h-12.2v23.5Z"/>
  </g>
  <g>
    <path d="M410.3,803.4v-59.5h-18.5v-6.5h44.1v6.5h-18.4v59.5h-7.1Z"/>
    <path d="M417.9,803.9h-8.1v-59.5h-18.5v-7.5h45.1v7.5h-18.4v59.5ZM410.8,802.9h6.1v-59.5h18.4v-5.5h-43.1v5.5h18.5v59.5Z"/>
  </g>
  <g>
    <path d="M450.8,803.4v-6.5h13.7v-53h-13.7v-6.5h34.5v6.5h-13.6v53h13.6v6.5h-34.5Z"/>
    <path d="M485.8,803.9h-35.5v-7.5h13.7v-52h-13.7v-7.5h35.5v7.5h-13.6v52h13.6v7.5ZM451.3,802.9h33.5v-5.5h-13.6v-54h13.6v-5.5h-33.5v5.5h13.7v54h-13.7v5.5Z"/>
  </g>
  <g>
    <path d="M522.7,804.3c-6.2,0-11.2-1.7-15-5.1-3.8-3.4-5.7-8-5.7-13.9h7.2c0,3.9,1.2,6.9,3.7,9.2,2.5,2.3,5.7,3.4,9.8,3.4s7.1-1.1,9.4-3.3c2.4-2.2,3.5-5.2,3.5-8.8s-.8-5.4-2.3-7.5c-1.5-2.1-3.7-3.6-6.5-4.3l-9.9-2.8c-4.1-1.2-7.3-3.3-9.7-6.4-2.4-3.1-3.6-6.7-3.6-10.9s.8-6.4,2.4-9c1.6-2.6,3.7-4.6,6.5-6.1,2.8-1.4,6-2.2,9.7-2.2s6.9.7,9.8,2.2c2.8,1.5,5,3.5,6.6,6.1,1.6,2.6,2.4,5.7,2.4,9.2h-7.1c0-3.3-1.1-6-3.3-8.1-2.2-2.1-5-3.1-8.4-3.1s-6.2,1-8.3,3c-2.1,2-3.2,4.6-3.2,7.8s.7,4.8,2.1,6.7c1.4,1.9,3.3,3.2,5.9,4l10,2.9c4.3,1.2,7.7,3.5,10.2,6.8,2.5,3.3,3.7,7.3,3.7,11.8s-.8,7-2.5,9.8c-1.7,2.8-4,4.9-7,6.5-3,1.5-6.5,2.3-10.5,2.3Z"/>
    <path d="M522.7,804.8c-6.3,0-11.5-1.8-15.3-5.2-3.9-3.5-5.9-8.3-5.9-14.3v-.5h8.2v.5c0,3.7,1.2,6.7,3.5,8.8,2.4,2.2,5.5,3.3,9.4,3.3s6.8-1.1,9.1-3.2c2.2-2.1,3.4-4.9,3.4-8.4s-.7-5.2-2.2-7.2c-1.5-2-3.5-3.4-6.2-4.2l-9.9-2.8c-4.2-1.2-7.5-3.4-10-6.6-2.4-3.1-3.7-6.9-3.7-11.2s.8-6.6,2.4-9.3c1.6-2.7,3.9-4.8,6.7-6.2,2.8-1.5,6.2-2.2,9.9-2.2s7.1.8,10,2.3c2.9,1.5,5.2,3.6,6.8,6.3,1.6,2.7,2.5,5.9,2.5,9.4v.5h-8.1v-.5c0-3.2-1-5.8-3.1-7.7-2.1-2-4.8-3-8.1-3s-6,1-8,2.8c-2,1.9-3,4.4-3,7.4s.7,4.6,2,6.4c1.3,1.8,3.2,3.1,5.6,3.8l10,2.9c4.4,1.2,8,3.6,10.5,7,2.5,3.4,3.8,7.5,3.8,12.1s-.9,7.2-2.6,10c-1.7,2.8-4.1,5.1-7.2,6.7-3,1.6-6.7,2.4-10.8,2.4ZM502.5,785.8c.1,5.4,2,9.8,5.5,13,3.7,3.3,8.6,5,14.7,5s7.4-.8,10.3-2.2c2.9-1.5,5.2-3.6,6.8-6.3,1.6-2.7,2.4-5.9,2.4-9.5s-1.2-8.3-3.6-11.5c-2.4-3.2-5.7-5.5-9.9-6.6l-10-2.9c-2.6-.8-4.7-2.2-6.1-4.2-1.4-1.9-2.2-4.3-2.2-7s1.1-6.1,3.3-8.1c2.2-2.1,5.1-3.1,8.7-3.1s6.5,1.1,8.8,3.3c2.2,2.1,3.3,4.7,3.4,8h6.1c0-3.2-.9-6-2.3-8.4-1.5-2.5-3.7-4.5-6.5-6-2.8-1.4-6-2.2-9.5-2.2s-6.8.7-9.4,2.1c-2.7,1.4-4.8,3.4-6.3,5.9-1.5,2.5-2.3,5.5-2.3,8.8s1.2,7.7,3.5,10.6c2.3,3,5.5,5.1,9.5,6.2l9.9,2.8c2.9.8,5.1,2.3,6.7,4.5,1.6,2.2,2.4,4.8,2.4,7.8s-1.2,6.8-3.7,9.1c-2.4,2.3-5.7,3.5-9.7,3.5s-7.5-1.2-10.1-3.5c-2.5-2.2-3.8-5.3-3.9-9h-6.2Z"/>
  </g>
  <g>
    <path d="M554.4,803.4l17.5-66h9.5l17.4,66h-7.2l-4.6-17.9h-20.6l-4.5,17.9h-7.3ZM567.7,779.3h17.6l-5.6-22.1c-.9-3.7-1.6-6.8-2.2-9.2-.5-2.5-.9-4.1-1-4.9-.1.8-.5,2.4-1,4.9-.5,2.5-1.3,5.5-2.2,9.2l-5.7,22.1Z"/>
    <path d="M599.4,803.9h-8.3l-4.6-17.9h-19.8l-4.5,17.9h-8.4l17.7-67h10.3v.4c0,0,17.6,66.6,17.6,66.6ZM591.9,802.9h6.2l-17.1-65h-8.7l-17.2,65h6.3l4.5-17.9h21.4l4.6,17.9ZM586,779.8h-18.9l5.9-22.7c.9-3.7,1.6-6.8,2.2-9.2.5-2.4.9-4.1,1-4.9l.5-3.2.5,3.2c.1.8.4,2.4,1,4.9.5,2.5,1.3,5.6,2.2,9.2l5.8,22.7ZM568.3,778.8h16.3l-5.4-21.4c-.9-3.6-1.6-6.7-2.2-9.2-.2-.9-.4-1.7-.5-2.4-.1.7-.3,1.5-.5,2.4-.5,2.5-1.3,5.6-2.2,9.2l-5.5,21.4Z"/>
  </g>
  <g>
    <path d="M612.3,803.4v-66h9.6l21.2,57.7c0-1.4-.2-3.1-.3-5.1-.1-2-.2-4-.3-6.1,0-2.1-.1-4-.1-5.8v-40.7h7v66h-9.7l-21.1-57.7c.1,1.8.3,4.3.4,7.6.1,3.3.2,6.4.2,9.4v40.7h-7Z"/>
    <path d="M649.8,803.9h-10.5l-20-54.8c0,1.2.1,2.6.2,4.2.2,3.3.2,6.5.2,9.4v41.2h-8v-67h10.4v.3c.1,0,20.2,54.6,20.2,54.6,0-.6,0-1.2-.1-1.8-.1-2-.2-4-.3-6.2,0-2.1-.1-4.1-.1-5.8v-41.2h8v67ZM640,802.9h8.8v-65h-6v40.2c0,1.7,0,3.7.1,5.8,0,2.1.2,4.2.3,6.1.1,2,.2,3.7.3,5.1v3.2c.1,0-22.1-60.4-22.1-60.4h-8.7v65h6v-40.2c0-3,0-6.1-.2-9.4-.2-3.2-.3-5.8-.4-7.6l-.2-3.5,22.1,60.6Z"/>
  </g>
  <g>
    <path d="M720.2,803.4v-6.6l22.4-24c3.1-3.3,5.4-6.3,6.8-9.1,1.4-2.8,2.1-5.6,2.1-8.3s-1.1-6.8-3.3-9.1c-2.2-2.3-5.2-3.4-9-3.4s-6.9,1.2-9.3,3.5c-2.3,2.4-3.5,5.5-3.5,9.3h-7.1c.1-5.8,2-10.5,5.6-14,3.6-3.5,8.4-5.2,14.3-5.2s10.7,1.7,14.3,5.2c3.6,3.4,5.4,8,5.4,13.8s-.9,6.7-2.6,10.2c-1.7,3.6-4.6,7.4-8.5,11.6l-18.8,19.6h30.7v6.5h-39.4Z"/>
    <path d="M760.1,803.9h-40.4v-7.3h.1c0-.1,22.4-24.1,22.4-24.1,3.1-3.2,5.3-6.2,6.7-9,1.3-2.8,2-5.5,2-8.1s-1.1-6.6-3.2-8.8c-2.1-2.2-5-3.3-8.7-3.3s-6.7,1.1-8.9,3.4c-2.2,2.2-3.3,5.3-3.3,9v.5h-8.2v-.5c.1-6,2.1-10.8,5.8-14.3,3.7-3.5,8.6-5.3,14.6-5.3s11,1.8,14.7,5.3c3.7,3.5,5.5,8.3,5.5,14.2s-.9,6.8-2.7,10.4c-1.8,3.6-4.7,7.5-8.6,11.7l-18,18.8h30.1v7.5ZM720.7,802.9h38.4v-5.5h-31.4l19.6-20.5c3.9-4.1,6.7-8,8.4-11.4,1.7-3.5,2.6-6.8,2.6-10,0-5.6-1.8-10.1-5.2-13.5-3.5-3.3-8.2-5-14-5s-10.4,1.7-13.9,5.1c-3.4,3.3-5.2,7.7-5.4,13.1h6.1c0-3.8,1.3-6.8,3.6-9.2,2.4-2.4,5.6-3.7,9.6-3.7s7.1,1.2,9.4,3.6c2.3,2.4,3.5,5.6,3.5,9.5s-.7,5.6-2.1,8.5c-1.4,2.9-3.7,6-6.9,9.3l-22.3,23.8v5.9Z"/>
  </g>
  <g>
    <path d="M793.5,804.3c-2.2,0-3.9-.6-5.2-1.9-1.3-1.3-2-3-2-5.1s.7-3.8,2-5.2c1.3-1.4,3.1-2,5.2-2s3.9.7,5.2,2c1.3,1.4,2,3.1,2,5.2s-.7,3.8-2,5.1c-1.3,1.3-3.1,1.9-5.2,1.9Z"/>
    <path d="M793.5,804.8c-2.3,0-4.2-.7-5.6-2.1-1.4-1.4-2.1-3.2-2.1-5.5s.7-4.1,2.1-5.5c1.4-1.4,3.3-2.2,5.6-2.2s4.2.7,5.6,2.2c1.4,1.4,2.1,3.3,2.1,5.5s-.7,4.1-2.1,5.5c-1.4,1.4-3.3,2.1-5.6,2.1ZM793.5,790.5c-2,0-3.7.6-4.9,1.9-1.2,1.3-1.8,2.9-1.8,4.8s.6,3.5,1.8,4.8c1.2,1.2,2.9,1.8,4.9,1.8s3.7-.6,4.9-1.8c1.2-1.2,1.8-2.8,1.8-4.8s-.6-3.6-1.8-4.8c-1.2-1.3-2.8-1.9-4.9-1.9Z"/>
  </g>
  <g>
    <path d="M847.8,804.3c-6,0-10.7-1.8-14.2-5.3s-5.3-8.2-5.3-14.2v-28.9c0-5.9,1.8-10.6,5.3-14.1,3.5-3.5,8.3-5.3,14.2-5.3s10.8,1.8,14.3,5.3c3.5,3.5,5.2,8.2,5.2,14.1v28.9c0,5.9-1.8,10.6-5.3,14.2-3.5,3.5-8.3,5.3-14.2,5.3ZM847.8,798.1c3.8,0,6.8-1.2,9.1-3.7,2.3-2.4,3.4-5.7,3.4-9.6v-28.9c0-4-1.1-7.2-3.4-9.6-2.3-2.4-5.3-3.7-9.1-3.7s-6.8,1.2-9.1,3.7c-2.3,2.4-3.4,5.7-3.4,9.6v28.9c0,4,1.1,7.2,3.4,9.6,2.3,2.4,5.3,3.7,9.1,3.7ZM847.8,775.1c-1.6,0-2.8-.4-3.8-1.3-.9-.9-1.4-2.1-1.4-3.7s.5-2.8,1.4-3.6c.9-.8,2.2-1.2,3.8-1.2s2.8.4,3.8,1.2c.9.8,1.4,2,1.4,3.6s-.5,2.8-1.4,3.7c-.9.9-2.2,1.3-3.8,1.3Z"/>
    <path d="M847.8,804.8c-6.1,0-11-1.8-14.6-5.4s-5.4-8.5-5.4-14.5v-28.9c0-6,1.8-10.9,5.4-14.5,3.6-3.6,8.5-5.4,14.6-5.4s11.1,1.8,14.6,5.4c3.6,3.6,5.4,8.5,5.4,14.5v28.9c0,6-1.8,10.9-5.4,14.5-3.6,3.6-8.5,5.4-14.6,5.4ZM847.8,737c-5.8,0-10.5,1.7-13.9,5.1-3.4,3.4-5.1,8.1-5.1,13.8v28.9c0,5.7,1.7,10.4,5.1,13.8s8.1,5.1,13.9,5.1,10.5-1.7,13.9-5.1c3.4-3.4,5.1-8.1,5.1-13.8v-28.9c0-5.7-1.7-10.4-5.1-13.8-3.4-3.4-8.1-5.1-13.9-5.1ZM847.8,798.6c-3.9,0-7.1-1.3-9.5-3.8-2.4-2.5-3.6-5.9-3.6-10v-28.9c0-4.1,1.2-7.4,3.6-10,2.4-2.5,5.6-3.8,9.5-3.8s7.1,1.3,9.5,3.8c2.4,2.5,3.6,5.9,3.6,10v28.9c0,4.1-1.2,7.4-3.6,10-2.4,2.5-5.6,3.8-9.5,3.8ZM847.8,743.1c-3.6,0-6.6,1.2-8.8,3.5-2.2,2.3-3.3,5.5-3.3,9.3v28.9c0,3.8,1.1,7,3.3,9.3,2.2,2.3,5.1,3.5,8.8,3.5s6.6-1.2,8.8-3.5c2.2-2.3,3.3-5.5,3.3-9.3v-28.9c0-3.8-1.1-7-3.3-9.3-2.2-2.3-5.1-3.5-8.8-3.5ZM847.8,775.6c-1.7,0-3.1-.5-4.1-1.4-1-1-1.6-2.3-1.6-4s.5-3,1.6-3.9c1-.9,2.4-1.3,4.1-1.3s3.1.5,4.1,1.3c1,.9,1.6,2.2,1.6,3.9s-.5,3.1-1.6,4c-1,1-2.4,1.4-4.1,1.4ZM847.8,765.8c-1.4,0-2.6.4-3.4,1.1-.8.7-1.2,1.8-1.2,3.2s.4,2.5,1.2,3.3c.8.8,2,1.2,3.4,1.2s2.6-.4,3.4-1.2c.8-.8,1.2-1.9,1.2-3.3s-.4-2.5-1.2-3.2c-.8-.7-2-1.1-3.4-1.1Z"/>
  </g>
  <path d="M742.9,607.7c1.9,0,1.9-3,0-3s-1.9,3,0,3h0Z"/>
</svg>