<?xml version="1.0" encoding="UTF-8"?>
<svg id="Calque_2" xmlns="http://www.w3.org/2000/svg" version="1.1" viewBox="0 0 1044.6 1080">
  <!-- Generator: Adobe Illustrator 29.8.2, SVG Export Plug-In . SVG Version: 2.1.1 Build 3)  -->
  <path d="M522.3,848.2c-13.5,0-27-3.5-39.1-10.4l-199.3-115.1c-24.1-13.9-39.1-39.8-39.1-67.6v-230.1c0-27.8,15-53.7,39.1-67.6l199.3-115.1c24.1-13.9,54-13.9,78.1,0l199.3,115.1c24.1,13.9,39.1,39.8,39.1,67.6v230.1c0,27.8-15,53.7-39.1,67.6l-199.3,115.1c-12,7-25.5,10.4-39.1,10.4ZM522.3,247.9c-10.7,0-21.4,2.8-31,8.3l-199.3,115.1c-19.1,11-31,31.6-31,53.7v230.1c0,22.1,11.9,42.6,31,53.7l199.3,115.1c19.1,11,42.9,11,62,0l199.3-115.1c19.1-11,31-31.6,31-53.7v-230.1c0-22.1-11.9-42.6-31-53.7l-199.3-115.1c-9.6-5.5-20.3-8.3-31-8.3Z"/>
  <path d="M522.3,570c-4.5,0-8.1-3.6-8.1-8.1v-191.9c0-4.5,3.6-8.1,8.1-8.1s8.1,3.6,8.1,8.1v191.9c0,4.5-3.6,8.1-8.1,8.1Z"/>
  <path d="M641.1,618.1h-229.1c-4.5,0-8.1-3.6-8.1-8.1s3.6-8.1,8.1-8.1h229.1c4.5,0,8.1,3.6,8.1,8.1s-3.6,8.1-8.1,8.1Z"/>
  <path d="M607.4,681.9h-161.5c-4.5,0-8.1-3.6-8.1-8.1s3.6-8.1,8.1-8.1h161.5c4.5,0,8.1,3.6,8.1,8.1s-3.6,8.1-8.1,8.1Z"/>
  <path d="M676.4,547.1h-308.2c-4.5,0-8.1-3.6-8.1-8.1s3.6-8.1,8.1-8.1h308.2c4.5,0,8.1,3.6,8.1,8.1s-3.6,8.1-8.1,8.1Z"/>
</svg>